<svg id="Layer_1" enable-background="new 0 0 512 512" height="512" viewBox="0 0 512 512" width="512" xmlns="http://www.w3.org/2000/svg"><path d="m449.967 110.274c-1.505-1.464-3.112-2.777-4.799-3.951 6.571-5.926 10.709-14.5 10.709-24.023v-6.133c0-4.142-3.358-7.5-7.5-7.5s-7.5 3.358-7.5 7.5v6.133c0 6.88-4.035 12.82-9.854 15.625v-39.965c0-4.142-3.358-7.5-7.5-7.5s-7.5 3.358-7.5 7.5v39.964c-5.819-2.805-9.854-8.745-9.854-15.625v-6.133c0-4.142-3.358-7.5-7.5-7.5s-7.5 3.358-7.5 7.5v6.134c0 9.713 4.308 18.433 11.108 24.369-9.625 6.951-15.958 18.377-15.958 31.109v70.044c0 13.459-10.95 24.409-24.41 24.409h-9.837v-136.315c0-52.888-43.028-95.916-95.916-95.916-52.888 0-95.916 43.028-95.916 95.916v246.438h-10.149c-13.459 0-24.41-10.95-24.41-24.41v-110.044c0-12.821-6.421-24.319-16.16-31.255 6.702-5.932 10.939-14.59 10.939-24.223v-6.132c0-4.142-3.358-7.5-7.5-7.5s-7.5 3.358-7.5 7.5v6.132c0 6.88-4.035 12.82-9.854 15.625v-39.964c0-4.142-3.358-7.5-7.5-7.5s-7.5 3.358-7.5 7.5v39.964c-5.819-2.805-9.854-8.745-9.854-15.625v-6.132c0-4.142-3.358-7.5-7.5-7.5s-7.5 3.358-7.5 7.5v6.132c0 9.602 4.208 18.235 10.873 24.165-9.873 6.967-15.944 18.594-15.944 30.689v25.733c0 4.142 3.358 7.5 7.5 7.5s7.5-3.358 7.5-7.5v-25.733c0-12.418 10.707-22.824 23.138-22.491 12.055.331 21.862 10.7 21.862 23.115v110.044c0 21.73 17.679 39.41 39.41 39.41h10.07l-.468 45h-24.284c-38.448 0-69.728-31.28-69.728-69.728v-59.631c0-4.142-3.358-7.5-7.5-7.5s-7.5 3.358-7.5 7.5v59.631c0 46.719 38.009 84.728 84.728 84.728h24.831v79.646h-47.124c-4.142 0-7.5 3.358-7.5 7.5s3.358 7.5 7.5 7.5h286.08c4.142 0 7.5-3.358 7.5-7.5s-3.358-7.5-7.5-7.5h-47.124v-189.769h24.519c46.719 0 84.728-38.009 84.728-84.728v-85.35c0-10.211-4.031-19.757-11.352-26.879zm-274.727-14.358c0-30.799 17.301-57.627 42.69-71.295-2.422 5.303-3.783 11.188-3.783 17.389v454.99h-38.907zm122.925 401.084v-369.017c0-4.142-3.358-7.5-7.5-7.5s-7.5 3.358-7.5 7.5v369.017h-54.018v-454.991c0-14.893 12.116-27.009 27.009-27.009s27.009 12.116 27.009 27.009v46c0 4.142 3.358 7.5 7.5 7.5s7.5-3.358 7.5-7.5v-46c0-6.201-1.361-12.086-3.783-17.389 25.39 13.668 42.69 40.496 42.69 71.295v401.085zm148.154-274.497c0 38.448-31.28 69.728-69.728 69.728h-24.284l-.235-45h9.837c21.73 0 39.41-17.679 39.41-39.409v-70.044c0-12.416 9.808-22.785 21.862-23.116 12.401-.348 23.138 10.053 23.138 22.491z"/></svg>