<svg width="341" height="220" viewBox="0 0 341 220" fill="none" xmlns="http://www.w3.org/2000/svg">
<g filter="url(#filter0_d)">
<path fill-rule="evenodd" clip-rule="evenodd" d="M246.888 165.978C245.369 167.735 243.126 169.039 241.404 170.645C239.597 172.332 237.636 173.807 235.835 175.473C227.894 165.768 217.016 159.816 207.592 151.762C203.124 147.944 199.833 142.765 197.424 137.449C196.189 134.724 195.276 131.919 194.563 129.017C194.241 127.709 193.927 126.406 193.716 125.081C193.462 123.475 193.396 123.339 192.313 122.086C191.847 121.547 190.944 119.972 190.031 120.145C189.263 120.291 187.857 122.63 187.372 123.208C185.036 125.987 182.772 128.85 180.314 131.521C176.552 135.609 173.128 139.631 169.636 143.963C162.491 152.826 154.785 161.169 147.008 169.509C146.432 170.127 145.087 171.941 144.258 172.184C143.251 172.481 141.613 171.245 140.599 170.554C138.149 168.887 136.219 166.823 134.125 164.756C130.04 160.724 127.273 155.063 125.412 149.677C124.298 146.453 123.573 143.111 122.424 139.898C121.944 138.559 120.858 136.913 121.41 135.746C121.574 135.399 122.619 134.475 122.988 134.404C123.424 134.321 124.15 134.918 124.302 134.877C125.748 134.481 124.945 132.967 125.805 132.153C126.293 131.691 128.773 131.758 129.514 131.504C132.221 130.576 134.65 128.804 137.21 127.746C147.925 123.319 158.771 119.013 168.021 111.784C170.42 109.909 172.014 108.501 174.877 107.289C177.77 106.065 180.678 104.972 183.629 103.904C186.234 102.961 188.852 102.077 191.542 101.402C194.451 100.671 198.578 99.7446 201.484 100.686C207.192 102.534 209.036 107.237 211.309 112.198C214.384 118.911 218.102 125.262 222.134 131.441C229.888 143.328 239.32 153.995 246.888 165.978Z" fill="#3DCCBE"/>
<path fill-rule="evenodd" clip-rule="evenodd" d="M74.9879 60.8878C74.6738 60.7284 72.2215 61.7265 71.8099 61.8792C70.1658 62.4892 68.6171 63.5028 67.0682 64.3274C68.2553 65.7721 69.4427 67.2171 70.6295 68.6622C71.7931 65.8081 73.2886 63.453 74.9879 60.8878ZM75.7973 78.6457C75.3934 78.6911 78.8035 86.8856 79.2016 87.8057C80.6507 91.1521 82.1721 94.4659 83.6404 97.804C85.0629 101.039 86.8674 104.015 88.6854 107.037C90.2404 109.621 91.8398 113.632 94.1855 115.546C92.7045 108.975 92.8995 101.42 88.6515 95.9036C84.248 90.1843 79.8944 84.5994 75.7973 78.6457ZM246.888 166.27C240.307 155.85 232.07 146.632 225.209 136.398C221.366 130.668 217.627 124.864 214.393 118.764C212.04 114.327 210.578 107.996 206.945 104.604C205.344 103.11 203.633 101.647 201.484 100.977C198.544 100.061 194.496 100.969 191.542 101.694C186.038 103.043 180.661 105.139 175.448 107.34C170.159 109.572 165.648 113.582 160.87 116.804C155.744 120.26 150.196 122.778 144.454 124.982C139.454 126.901 135.005 129.657 130.032 131.588C129.041 131.973 127.018 131.917 126.187 132.419C125.291 132.959 125.644 134.555 124.556 135.144C124.066 135.41 123.902 134.447 123.526 134.463C123.065 134.482 122.645 135.023 122.201 135.365C120.393 136.759 121.501 137.689 122.217 139.608C124.549 145.861 125.803 152.222 129.079 158.124C131.772 162.976 135.626 167.324 140.164 170.536C140.854 171.025 143.104 172.919 143.914 172.793C144.644 172.68 146.128 170.74 146.632 170.214C148.917 167.824 151.006 165.254 153.289 162.86C156.818 159.161 160.216 155.363 163.64 151.614C167.616 147.261 171.135 142.329 174.716 137.679C176.363 135.539 178.483 133.797 180.314 131.813C182.776 129.145 185.036 126.278 187.372 123.5C188.078 122.659 189.262 120.508 190.36 120.534C191.129 120.551 192.486 122.363 192.888 122.931C194.384 125.041 194.378 128.852 195.121 131.486C196.937 137.909 200.21 144.183 204.699 149.139C209.163 154.068 214.881 157.574 220.161 161.535C225.881 165.828 231.299 170.221 235.835 175.765C237.636 174.098 239.597 172.624 241.404 170.937C243.126 169.33 245.369 168.027 246.888 166.27ZM162.186 195.75C163.465 195.763 165.632 196.55 166.776 196.076C163.381 192.32 160.264 189.097 155.969 186.344C151.512 183.488 147.07 180.657 142.741 177.61C134.018 171.47 127.601 164.189 123.957 153.963C123.019 151.33 122.39 148.568 121.703 145.862C121.333 144.404 120.596 137.584 119.346 136.995C118.605 136.646 113.029 140.565 112.146 141.053C110.08 142.195 108.007 143.081 105.871 143.975C101.281 145.897 96.5493 147.363 91.6818 148.587C85.8461 150.054 81.8711 147.626 78.256 143.039C74.1545 137.836 70.7462 131.964 66.9962 126.5C65.2909 124.014 63.8781 121.532 62.6187 118.791C61.7944 116.997 58.5253 112.158 59.6549 110.246C62.8776 112.7 64.0372 117.579 66.2325 120.864C68.9686 124.958 72.052 128.819 74.8022 132.909C77.1149 136.349 79.4744 140.517 82.8911 142.99C85.8965 145.165 88.7517 144.496 91.9861 143.519C95.9063 142.334 99.9697 141.75 103.812 140.281C107.969 138.691 111.903 136.436 115.959 134.597C117.85 133.74 120.114 133.253 121.896 132.184C123.432 131.263 123.203 130.776 123.316 128.816C123.448 126.528 123.599 124.238 123.701 121.948C123.768 120.41 122.937 118.324 123.501 117.175C118.896 117.974 114.395 119.043 109.822 119.989C107.318 120.507 104.904 121.147 102.375 121.554C101.411 121.709 100.093 121.705 99.2295 122.125C98.5408 121.927 98.1897 122.053 98.1763 122.502C98.1433 122.746 98.0912 122.986 98.0196 123.223C96.6075 123.865 95.7862 122.487 94.5615 121.166C93.0502 119.535 91.9185 117.698 90.8098 115.781C88.3306 111.496 85.4731 107.466 83.179 103.06C80.8407 98.569 78.9417 93.7604 76.9592 89.1007C75.1406 84.8258 73.976 80.2024 71.9663 76.0287C71.0694 74.1656 69.9327 72.6251 68.6054 71.0512C67.5101 69.7524 65.8249 66.9508 64.1892 66.3542C63.7567 66.1965 62.6241 66.4615 62.1327 66.4265C61.1535 66.3566 60.2808 65.9971 59.2786 66.0758C57.1089 66.2456 54.7434 67.6177 53.0095 68.8239C54.13 69.8227 56.933 71.0367 54.9196 72.8359C52.9657 74.5826 51.8866 71.4494 51.141 70.0766C47.6301 72.9597 48.1376 76.935 47.732 81.0085C47.5202 83.1352 46.9629 85.2297 46.6034 87.3244C46.3445 88.832 46.5261 90.3914 46.4521 91.9306C46.2634 95.842 45.8703 99.586 45.8888 103.443C45.9096 107.565 46.1904 111.546 46.5204 115.638C47.0756 122.528 48.3478 129.421 49.4387 136.256C50.0524 140.098 50.8925 143.831 51.708 147.611C52.6335 151.901 54.3456 155.964 55.3057 160.243C56.2839 159 57.0197 158.993 58.602 159.158C59.819 159.285 60.6366 158.995 60.5653 160.685C60.5192 161.78 59.5527 162.617 58.4833 162.808C57.0887 163.058 56.6149 162.362 55.8962 161.305C55.7281 163.306 57.0732 165.397 57.6052 167.351C58.1087 169.202 58.4423 171.017 59.2884 172.789C60.114 174.517 60.8209 176.222 61.6562 177.934C62.0409 178.722 62.4008 179.522 62.7899 180.307C62.9866 180.705 63.2183 181.253 63.5119 181.589C64.2006 182.375 64.091 181.994 64.8971 182.441C66.6532 183.417 65.9937 183.174 66.0348 185.188C66.0748 187.175 67.0937 188.635 68.7278 189.752C72.1946 192.122 75.6141 192.781 79.5554 193.979C83.2277 195.095 87.0958 196.052 90.9843 196.03C95.7469 196.004 100.446 195.379 105.209 195.316C110.463 195.246 115.768 195.275 121.011 195.457C123.171 195.531 125.177 195.628 127.263 196.179C129.684 196.82 132.027 196.566 134.523 196.469C139.848 196.261 145.356 195.849 150.611 195.812C154.395 195.786 158.388 195.522 162.186 195.75ZM300.264 197.814C301.21 198.314 303.332 198.109 304.284 197.97C305.96 197.725 306.14 197.061 307.204 195.566C309.035 192.992 310.521 190.526 311.598 187.544C313.66 181.837 314.501 175.998 315.406 170.028C316.412 163.395 314.575 156.518 313.918 149.93C313.767 148.418 313.561 146.92 313.322 145.42C313.179 144.523 313.142 141.472 312.552 140.695C311.418 139.204 306.144 140.407 304.071 140.542C298.284 140.92 292.459 141.009 286.675 141.074C283.591 141.109 280.49 141.238 277.436 141.262C276.034 141.273 274.663 141.204 273.255 141.067C272.785 141.022 272.325 140.913 271.851 140.887C270.227 140.797 270.349 140.562 269.929 142C269.194 144.518 269.76 147.723 269.567 150.337C269.309 153.831 269.169 157.374 269.233 160.874C269.292 164.109 269.182 167.337 269.303 170.579C269.353 171.922 269.5 173.017 269.854 174.299C270.254 175.749 270.695 179.136 271.692 180.139C271.806 180.254 272.653 179.987 272.878 180.272C273.225 180.71 273.162 181.637 273.4 181.92C274.17 182.837 275.762 182.91 276.918 183.322C280.087 184.452 282.995 185.679 285.982 187.203C288.651 188.565 292.955 189.724 294.56 192.41C295.295 193.641 295.395 195.265 296.071 196.536C296.842 197.983 295.3 197.227 297.188 197.814C298.038 198.078 299.392 197.814 300.264 197.814ZM18.869 181.444C18.6289 184.786 16.746 187.97 16.0906 191.256C15.7839 192.795 15.2636 194.308 14.9031 195.837C14.5574 197.305 13.3084 199.043 13.4349 200.495C18.0448 198.853 22.7142 198.44 27.5323 197.997C32.0988 197.577 36.9229 197.41 41.4511 197.408C46.0653 197.405 50.9991 196.955 55.7502 196.885C60.719 196.812 65.7627 196.683 70.6595 196.168C68.0989 194.271 64.8951 192.49 63.0044 189.852C60.949 186.983 59.8816 183.39 58.073 180.363C54.4437 174.289 52.1364 166.753 50.234 159.929C46.3932 146.154 42.1011 132.633 41.0667 118.344C39.098 119.353 37.5353 123.264 36.5496 125.212C35.2915 127.699 34.6327 130.394 33.8149 133.038C32.1307 138.482 30.9651 144.127 28.903 149.519C24.9616 159.827 22.4283 170.935 18.869 181.444ZM269.109 101.158C269.961 107.319 271.749 113.56 271.817 119.795C271.832 121.167 271.6 122.69 271.886 124.043C272.191 125.487 273.184 126.763 273.758 128.136C274.668 130.314 276.972 134.779 274.75 136.625C274.705 134.874 273.102 132.649 272.294 131.117C271.077 128.809 269.478 126.699 268.159 124.448C265.397 119.737 262.303 115.127 258.744 110.974C255.277 106.928 251.282 103.339 247.606 99.4871C246.502 98.3296 237.642 87.1892 237.29 87.3449C240.038 97.9429 244.709 107.164 251.103 116.037C254.237 120.387 257.999 123.25 261.815 126.935C264.993 130.004 270.982 133.286 269.883 138.314C274.851 137.837 279.785 137.074 284.798 137.074C283.974 130.729 283.342 124.486 281.871 118.246C280.2 111.161 279.069 103.863 277.655 96.7151C276.212 89.4175 273.765 82.3527 272.242 75.0689C270.785 68.0942 269.532 61.1319 268.464 54.0795C267.58 57.9872 267.906 62.2794 267.593 66.2664C267.273 70.3399 267.304 74.3385 267.41 78.4359C267.608 86.0465 268.419 93.5653 269.109 101.158ZM290.633 64.8728C290.661 61.6152 291.292 58.4016 291.487 55.1516C291.547 54.1545 292.54 47.3517 291.614 46.9965C290.852 48.6571 290.675 50.7822 289.983 52.5245C289.292 54.2652 288.367 55.9234 287.704 57.6762C286.268 61.4733 285.772 65.7697 285.617 69.8066C285.267 78.9376 285.086 88.0481 285.7 97.1791C285.963 101.093 286.165 105.013 286.093 108.935C286.014 113.25 285.353 116.995 286.155 121.275C286.95 125.513 287.449 129.733 287.713 134.033C287.899 137.051 287.974 136.837 290.853 136.625C292.932 136.472 295.031 136.636 297.112 136.541C296.139 124.778 295.98 112.992 294.425 101.275C293.632 95.2973 293.611 89.2332 292.625 83.2778C292.136 80.3194 291.314 77.4206 290.842 74.4589C290.335 71.2789 290.585 68.0774 290.633 64.8728ZM80.0777 57.4707C85.6208 57.9509 91.517 59.6082 97.1987 58.5139C96.2621 58.1345 93.8112 57.6113 94.9142 56.1141C96.0358 54.5917 97.9257 56.5227 99.0443 56.3233C99.734 56.2002 101.258 53.3171 101.683 52.7202C102.648 51.3636 102.764 51.1272 104.499 50.7795C106.18 50.4432 106.561 50.8074 106.774 49.1364C107.018 47.2148 106.354 45.0544 106.419 43.0895C106.561 38.8593 107.926 35.1496 109.196 31.1696C103.799 32.3436 98.5227 33.7358 93.0048 34.4925C90.646 34.816 86.9764 35.5622 84.8335 33.9588C84.2763 33.5418 84.3654 32.9788 83.9094 32.4956C83.1447 31.6848 81.7262 30.8461 80.6416 30.615C73.9672 29.1942 73.3162 38.7089 76.6609 42.2693C77.4986 43.1614 78.6642 43.602 79.5221 44.4195C80.6672 45.5098 80.761 46.6582 80.9282 48.3225C81.2416 51.4433 80.8158 54.5762 79.4845 57.431L80.0777 57.4707ZM161.072 102.389C163.042 102.763 165.099 102.678 167.074 102.997C167.776 103.11 169.88 103.506 170.497 103.096C171.44 102.469 171.775 100.171 172.22 99.1011C173.004 97.2188 174.113 95.577 174.86 93.6605C177.913 85.8323 180.761 77.9728 184.454 70.4119C183.038 70.044 181.952 70.0296 180.525 69.8395C179.039 69.6415 177.692 68.7627 176.274 68.3851C174.926 68.0263 173.515 68.1177 172.18 67.7004C171.444 67.4707 170.813 66.9599 170.088 66.7813C168.932 66.4971 167.583 66.331 166.896 67.0897C166.191 67.8679 165.944 70.0016 165.561 71.0068C164.54 73.6847 163.354 76.2691 162.498 79.0086C161.727 81.4793 160.993 83.9238 160.314 86.4171C159.596 89.0493 158.182 91.2187 157.32 93.7332C156.665 95.647 156.047 97.6036 155.949 99.6442C155.854 101.635 155.564 101.762 157.555 102.08C158.56 102.241 160.126 102.838 161.072 102.389ZM290.71 195.581C291.223 195.821 291.707 195.789 292.161 195.486C287.712 193.607 283.384 191 278.742 189.711C274.388 188.502 270.156 187.057 265.962 185.568C262.554 184.358 259.489 183.416 256.408 181.287C254.537 179.994 252.876 178.541 251.59 176.652C250.159 174.549 249.841 171.556 248.291 169.662C246.2 171.959 243.742 173.699 241.268 175.524C240.411 176.155 238.358 177.532 238.065 178.51C237.695 179.743 238.685 180.922 239.175 182.17C240.429 185.367 241.042 188.561 241.722 191.884C241.995 193.216 242.583 195.218 243.677 195.775C244.673 196.283 247.558 195.914 248.798 195.82C255.265 195.33 261.617 194.828 268.123 195.274C275.485 195.779 283.367 196.128 290.71 195.581ZM303.626 136.356C304.802 136.36 305.95 136.213 307.121 136.213C306.445 133.057 308.025 128.973 308.585 125.823C309.212 122.299 309.689 118.655 310.107 115.103C310.988 107.62 311.388 100.229 311.399 92.692C311.41 85.3988 312.737 78.7342 314.597 71.7231C316.594 64.1935 319.864 57.4223 322.568 50.1607C319.602 51.7285 317.96 55.3971 316.402 58.2018C314.432 61.748 313.12 65.6746 312.315 69.6556C310.763 77.3355 309.061 85.0386 307.27 92.7058C305.406 100.689 304.309 108.746 302.173 116.664C301.131 120.525 299.715 125.275 299.636 129.257C299.604 130.905 299.107 134.354 299.854 135.785C300.552 137.123 302.095 136.493 303.626 136.356ZM126.215 126.451C126.153 127.271 126.094 128.051 125.949 128.861C127.577 128.845 129.638 127.156 131.035 126.398C132.736 125.474 134.439 124.455 136.102 123.526C139.314 121.733 142.96 120.552 146.389 119.079C150.329 117.387 153.949 115.342 157.717 113.305C159.032 112.593 168.49 108.494 168.331 107.374C166.255 107.305 164.178 107.236 162.102 107.167C160.322 107.108 157.565 107.51 155.86 106.96C154.927 106.658 153.878 105.548 153.526 104.678C153.177 103.818 153.961 99.8618 153.506 99.6095C151.182 101.982 149.721 105.135 147.643 107.695C145.347 110.524 142.38 112.176 139.111 113.679C135.5 115.339 131.763 116.625 128.072 118.048C126.516 118.648 126.547 118.991 126.411 120.697C126.26 122.605 126.276 124.539 126.215 126.451ZM313.848 198.202C317.762 198.623 321.774 198.383 325.718 198.711C327.154 198.83 329.144 199.007 327.699 200.934C326.79 202.147 323.877 201.758 322.556 201.842C319.008 202.068 315.252 201.946 311.697 201.894C310.948 201.883 310.121 201.66 309.364 201.71C308.491 201.768 307.445 202.396 306.649 202.391C306.158 202.388 305.982 201.871 305.559 201.823C304.638 201.72 303.716 201.644 302.787 201.644C288.733 201.647 274.872 201.365 260.854 201.35C254.15 201.343 247.339 201.227 240.639 200.912C239.232 200.846 231.218 201.134 231.44 198.6C231.554 197.296 234.17 197.112 235.124 196.973C235.831 196.87 236.565 196.887 237.274 196.849C239.156 196.748 239.981 197.201 239.584 195.141C238.077 187.328 235.378 180.871 229.612 175.254C224.896 170.66 219.218 166.494 213.877 162.658C207.392 158 202.131 153.102 198.281 145.975C196.032 141.813 194.15 137.558 192.995 132.956C192.579 131.3 192.57 129.418 192.06 127.821C191.668 126.593 190.775 125.733 190.249 124.46C183.797 135.237 175.246 144.253 167.405 153.97C163.658 158.612 159.384 163.021 154.908 167.06C153.579 168.258 152.34 169.51 151.1 170.799C150.063 171.879 148.416 172.838 147.54 174.036C146.7 175.185 146.907 175.13 148.186 176.042C149.876 177.248 151.739 178.25 153.455 179.425C156.2 181.305 159.195 182.893 161.649 185.155C164.302 187.601 166.621 190.434 168.94 193.193C170.486 195.031 172.514 197.39 172.903 199.715C173.032 200.484 173.521 202.386 172.876 202.949C172.324 203.431 172.38 203.248 171.695 202.954C170.798 202.57 170.534 201.687 169.438 201.266C166.633 200.19 163.24 200.56 160.322 200.546C157.403 200.533 154.46 200.861 151.542 200.849C144.879 200.822 138.359 201.361 131.698 201.651C124.624 201.958 117.463 201.22 110.412 201.325C105.188 201.402 99.8248 201.012 94.4565 201.302C91.6952 201.451 88.9834 201.106 86.291 201.067C82.766 201.016 79.1458 201.496 75.5905 201.564C69.7552 201.677 63.9911 201.676 58.1201 201.816C45.4916 202.119 32.9314 202.431 20.2956 202.631C18.6101 202.657 16.7648 202.6 15.0992 202.79C13.3313 202.992 14.244 203.367 13.031 204.004C9.63509 205.785 10.4193 199.182 10.5007 197.883C10.9372 190.923 12.7041 184.097 14.8274 177.49C16.8418 171.223 18.4772 164.664 20.1832 158.261C22.0507 151.254 24.4838 144.534 26.6932 137.595C28.9571 130.485 30.8003 123.098 34.9122 116.796C35.8488 115.36 36.8166 113.816 38.3232 112.911C40.0121 111.896 40.0847 112.489 40.0834 110.632C40.0824 108.883 40.19 106.547 39.7773 104.879C39.4044 103.371 39.4619 104.265 38.6222 103.182C37.9388 102.301 37.2239 101.699 36.7336 100.63C33.7217 103.684 26.8274 102.072 23.9174 99.8732C20.3558 97.1815 17.6429 92.6405 16.6488 88.3158C15.8505 84.8429 16.8301 78.223 20.6739 76.553C22.5477 75.7388 29.4303 75.1234 29.7057 72.47C29.8476 71.1003 27.4253 69.1744 26.8664 67.9967C25.8306 65.8148 24.8359 62.9126 24.548 60.5209C23.9857 55.8525 26.105 50.6322 29.4811 47.4788C35.6742 41.6939 46.5711 38.7251 54.5376 42.3954C52.8541 35.9644 51.8378 30.4166 52.6856 23.7271C53.416 17.964 56.8163 14.7397 61.4951 11.8691C69.4794 6.96995 80.3369 5.03627 89.4663 6.4608C91.5409 6.78465 93.5317 7.4791 95.4526 8.03163C98.2432 8.83436 101.584 8.56701 104.219 9.87115C106.129 10.8165 107.58 12.6997 109.258 13.9571C111.217 15.425 112.844 17.616 114.205 19.6421C117.116 23.9749 115.979 32.0164 113.543 36.3656C113.02 37.2985 112.375 38.0838 111.511 38.7204C110.611 39.3829 109.239 39.589 108.775 40.4482C107.587 42.6493 108.733 47.4142 108.892 49.7931C109.076 52.5554 107.68 54.6304 104.547 54.8506C102.735 54.9784 102.678 53.9272 101.81 56.0902C101.248 57.4922 100.737 59.0197 99.9253 60.305C98.2523 62.954 95.188 62.6953 92.3967 62.6237C89.1656 62.5403 85.983 62.0298 82.7502 61.7077C83.604 64.4434 85.9413 66.5667 87.4008 69.0039C89.3741 72.3002 90.5619 75.0326 90.8828 78.873C91.1289 81.8237 90.5976 84.1539 88.5785 86.3498C87.7428 87.2588 87.0019 87.3036 87.2094 88.3521C87.3359 88.9918 88.4419 90.047 88.8334 90.5575C89.8688 91.9081 91.0711 93.1477 91.9824 94.59C95.4893 100.14 96.5251 108.599 96.5338 115.059C96.5342 115.356 96.6922 115.986 96.5614 116.292C96.4645 116.518 95.7287 117.235 95.718 117.297C95.574 118.127 96.3838 119.551 97.6547 119.692C98.9894 119.84 101.434 118.726 102.676 118.36C104.662 117.774 106.688 117.342 108.67 116.74C111.872 115.768 115.059 114.994 118.314 114.232C119.785 113.889 121.264 113.602 122.739 113.281C124.42 112.915 125.201 112.207 126.069 113.917C126.813 115.385 126.35 115.651 128.153 114.912C129.943 114.177 131.692 113.266 133.44 112.437C136.522 110.975 140.193 109.671 142.852 107.512C147.288 103.911 148.93 98.1759 153.175 94.3546C154.357 93.2906 155.063 93.2718 155.81 91.7978C156.61 90.2202 157.022 88.1971 157.443 86.5002C158.18 83.5287 158.704 80.5468 159.372 77.578C160.204 73.8794 162.003 70.53 163.316 67.0022C163.827 65.6278 164.092 63.8808 164.917 62.6456C165.136 62.318 165.554 62.1334 165.724 61.8623C166.311 60.9318 166.305 60.6762 166.457 59.5567C167.168 54.3257 170.291 57.0776 173.703 58.2771C175.14 58.7826 181.967 62.0604 179.36 64.2403C182.467 65.1419 187.444 64.6519 187.402 69.1051C187.381 71.3868 186.016 73.8276 185.284 75.9634C184.633 77.8598 184.004 79.7635 183.343 81.6569C181.896 85.8044 180.139 89.8278 178.726 93.9881C178.082 95.8841 177.551 97.8245 176.655 99.6139C175.864 101.192 173.949 102.932 173.634 104.659C181.915 101.126 189.575 96.0183 198.844 96.3438C202.902 96.4861 206.585 98.1921 208.826 101.76C211.636 106.233 213.485 111.241 216.232 115.755C226.223 132.176 238.14 147.094 249.109 162.835C249.951 164.045 251.035 165.188 251.327 166.683C251.518 167.658 251.148 168.634 251.376 169.571C251.851 171.518 254.248 173.949 255.874 175.068C258.99 177.213 264.056 180.238 267.944 179.97C265.504 174.105 265.536 167.679 265.65 161.423C265.758 155.481 266.4 149.586 267.162 143.704C267.335 142.374 267.485 141.14 267.868 139.85C268.306 138.371 268.909 138.511 267.595 137.181C265.571 135.133 263.165 133.448 261.125 131.374C256.714 126.89 252.193 123.375 248.721 118.021C245.419 112.927 241.936 107.687 239.492 102.11C236.976 96.368 235.97 90.2364 234.721 84.1559C234.214 81.6885 232.366 78.9339 232.737 76.3572C233.207 73.1009 234.717 75.4721 235.331 77.2245C237.207 82.5739 241.599 87.3617 245.237 91.6639C249.168 96.3115 253.975 100.2 258.078 104.712C262.546 109.627 265.606 115.275 269.579 120.521C269.579 114.011 267.356 107.381 266.447 100.94C265.647 95.2714 265.396 89.5846 264.89 83.8912C263.741 70.9581 264.734 57.6439 266.346 44.8032C267.112 38.7049 266.677 32.7502 266.7 26.631C266.708 24.6835 265.902 20.195 266.929 18.4668C268.897 15.1567 270.044 22.3947 270.144 23.4739C270.739 29.9024 269.672 36.2594 270.217 42.6604C270.787 49.3449 272.023 55.8417 273.075 62.4488C274.214 69.6028 276.07 76.5953 277.846 83.6121C279.711 90.9792 281.28 98.5001 283.353 105.808C283.912 103.511 283.128 100.689 282.973 98.3494C282.752 95.0013 282.319 91.6525 282.282 88.2956C282.222 82.9455 282.181 77.4963 282.483 72.1711C282.782 66.9222 282.691 61.4221 284.301 56.3653C285.065 53.9652 286.186 51.6236 287.282 49.3627C288.635 46.5748 289.113 43.8717 289.862 40.9066C290.503 38.3673 291.442 35.8948 291.87 33.3047C292.135 31.6939 292.877 26.9387 294.721 30.5414C295.792 32.6325 295.329 35.7324 295.359 37.9788C295.398 40.8588 294.957 43.6592 294.889 46.5271C294.758 52.1539 294.663 57.774 294.243 63.3915C293.803 69.285 294.188 74.5668 295.309 80.3739C296.536 86.7305 296.895 93.1009 297.531 99.5352C297.859 102.857 298.412 106.161 298.679 109.488C298.82 111.25 298.096 116.302 299.358 117.557C299.48 114.505 300.354 111.451 301.017 108.478C301.803 104.955 302.12 101.252 302.698 97.6785C303.636 91.8896 305.454 86.3613 306.658 80.6372C309.138 68.8377 311.199 53.6726 321.593 45.9493C322.953 44.9387 324.447 44.1929 325.917 43.3612C326.75 42.8904 327.986 41.6723 328.939 41.4598C329.978 41.2278 330.412 41.408 330.833 42.614C331.421 44.2951 330.346 45.0803 329.343 46.3014C325.871 50.5266 324.388 55.9429 322.245 60.8982C317.336 72.245 315.164 84.213 315.14 96.4783C315.126 102.899 314.684 109.092 313.999 115.474C313.262 122.342 312.292 129.606 310.205 136.213C312.298 136.682 314.569 135.983 315.137 138.415C315.276 139.013 315.024 139.72 315.178 140.497C315.328 141.253 315.689 142.005 315.903 142.749C316.344 144.287 316.577 145.804 316.792 147.383C317.621 153.486 319.046 159.291 319.198 165.479C319.337 171.199 318.217 176.995 317.186 182.605C316.146 188.255 313.165 193.072 310.818 198.182C311.828 198.182 312.838 198.192 313.848 198.202Z" fill="#00715B"/>
<path fill-rule="evenodd" clip-rule="evenodd" d="M181.012 185.214C179.899 185.529 174.526 186.122 174.527 187.809C174.527 188.82 179.894 188.8 180.844 188.91C180.9 187.678 180.956 186.446 181.012 185.214ZM192.874 196.849C195.97 197.438 200.174 196.61 202.153 193.88C203.079 192.605 203.517 190.664 203.818 189.142C204.106 187.691 204.994 184.071 204.39 182.711C203.648 181.041 196.533 182.786 194.461 182.978C190.847 183.312 187.109 183.351 183.492 183.115C183.492 186.85 183.301 190.49 185.497 193.705C187.082 196.024 190.058 196.572 192.874 196.849ZM192.251 201.462C188.887 200.231 185.354 201.031 183.163 197.419C182.607 196.503 182.139 195.517 181.803 194.5C181.639 194.054 181.511 193.597 181.42 193.129C181.591 192.122 181.222 191.838 180.314 192.277C178.53 191.931 176.575 193.155 174.696 192.794C170.14 191.919 170.968 185.392 174.025 183.133C174.629 182.687 175.233 182.562 175.924 182.342C177.448 181.856 178.273 182.399 179.667 182.261C180.793 182.15 181.103 180.968 182.314 180.448C183.106 180.108 184.207 180.134 185.04 180.099C189.401 179.92 193.776 179.922 198.165 179.638C200.212 179.505 202.422 179.829 204.427 179.48C205.366 179.316 205.232 178.691 206.121 179.239C207.041 179.807 206.644 181.906 206.597 182.743C206.329 187.583 206.04 192.774 203.447 197.006C201.075 200.877 196.407 201.273 192.251 201.462Z" fill="#00715B"/>
<path fill-rule="evenodd" clip-rule="evenodd" d="M14.5583 202.796C15.6408 202.784 16.723 202.773 17.8018 202.762C16.718 202.773 15.6381 202.785 14.5583 202.796Z" fill="#00715B"/>
<path fill-rule="evenodd" clip-rule="evenodd" d="M315.146 99.5956C315.144 98.5557 315.142 97.5159 315.14 96.4781C315.142 97.5186 315.144 98.5571 315.146 99.5956Z" fill="#00715B"/>
<path fill-rule="evenodd" clip-rule="evenodd" d="M39.7806 103.866C39.7772 104.879 39.7739 105.892 39.7705 106.902C39.7735 105.889 39.7769 104.877 39.7806 103.866Z" fill="#00715B"/>
<path fill-rule="evenodd" clip-rule="evenodd" d="M129.762 201.648C130.623 201.649 131.485 201.65 132.342 201.652C131.479 201.651 130.621 201.65 129.762 201.648Z" fill="#00715B"/>
<path fill-rule="evenodd" clip-rule="evenodd" d="M77.4696 201.441C78.3309 201.444 79.1918 201.446 80.049 201.45C79.1864 201.447 78.3282 201.444 77.4696 201.441Z" fill="#00715B"/>
<path fill-rule="evenodd" clip-rule="evenodd" d="M265.763 159.374C265.726 160.057 265.687 160.741 265.65 161.423C265.688 160.739 265.726 160.056 265.763 159.374Z" fill="#00715B"/>
<path fill-rule="evenodd" clip-rule="evenodd" d="M313.848 198.202C313.183 198.195 312.517 198.189 311.852 198.182C312.52 197.903 313.186 197.915 313.848 198.202Z" fill="#00715B"/>
<path fill-rule="evenodd" clip-rule="evenodd" d="M254.76 201.23C255.238 201.222 255.715 201.215 256.188 201.207C255.709 201.214 255.234 201.222 254.76 201.23Z" fill="#00715B"/>
<path fill-rule="evenodd" clip-rule="evenodd" d="M314.887 108.032C314.899 107.515 314.911 106.999 314.922 106.484C314.911 107.001 314.899 107.517 314.887 108.032Z" fill="#00715B"/>
<path fill-rule="evenodd" clip-rule="evenodd" d="M270.217 42.6605C270.178 42.1274 270.138 41.5948 270.099 41.0631C270.138 41.5964 270.178 42.1285 270.217 42.6605Z" fill="#00715B"/>
<path fill-rule="evenodd" clip-rule="evenodd" d="M315.123 101.631C315.129 101.097 315.136 100.563 315.142 100.03C315.136 100.565 315.129 101.098 315.123 101.631Z" fill="#00715B"/>
<path fill-rule="evenodd" clip-rule="evenodd" d="M164.906 200.567C165.331 200.573 165.756 200.579 166.177 200.585C165.751 200.578 165.329 200.573 164.906 200.567Z" fill="#00715B"/>
<path fill-rule="evenodd" clip-rule="evenodd" d="M274.304 201.438C274.719 201.446 275.134 201.455 275.546 201.464C275.129 201.455 274.717 201.447 274.304 201.438Z" fill="#00715B"/>
<path fill-rule="evenodd" clip-rule="evenodd" d="M319.15 163.871C319.12 163.402 319.09 162.934 319.061 162.466C319.091 162.935 319.12 163.403 319.15 163.871Z" fill="#00715B"/>
<path fill-rule="evenodd" clip-rule="evenodd" d="M311.697 201.894C312.035 201.892 312.373 201.89 312.706 201.889C312.367 201.891 312.032 201.893 311.697 201.894Z" fill="#00715B"/>
<path fill-rule="evenodd" clip-rule="evenodd" d="M265.652 201.46C265.987 201.452 266.321 201.443 266.653 201.435C266.317 201.444 265.984 201.452 265.652 201.46Z" fill="#00715B"/>
<path fill-rule="evenodd" clip-rule="evenodd" d="M190.427 201.204C190.796 201.202 191.164 201.2 191.529 201.197C191.16 201.199 190.794 201.202 190.427 201.204Z" fill="#00715B"/>
<path fill-rule="evenodd" clip-rule="evenodd" d="M105.477 201.203C105.827 201.205 106.177 201.208 106.524 201.211C106.172 201.209 105.825 201.206 105.477 201.203Z" fill="#00715B"/>
<path fill-rule="evenodd" clip-rule="evenodd" d="M84.8113 201.259C85.1684 201.239 85.5249 201.219 85.8787 201.2C85.5205 201.22 85.1661 201.239 84.8113 201.259Z" fill="#00715B"/>
<path fill-rule="evenodd" clip-rule="evenodd" d="M183.75 65.1891C183.219 65.1434 182.688 65.0977 182.156 65.0516C182.688 65.0889 183.251 64.7741 183.75 65.1891Z" fill="#00715B"/>
<path fill-rule="evenodd" clip-rule="evenodd" d="M319.2 198.404C318.676 198.352 318.152 198.298 317.628 198.245C318.153 198.298 318.676 198.352 319.2 198.404Z" fill="#00715B"/>
<path fill-rule="evenodd" clip-rule="evenodd" d="M282.655 68.4151C282.62 68.8742 282.584 69.3335 282.549 69.7912C282.584 69.3315 282.62 68.8731 282.655 68.4151Z" fill="#00715B"/>
<path fill-rule="evenodd" clip-rule="evenodd" d="M315.255 87.5542C315.29 87.1191 315.326 86.6839 315.362 86.2504C315.326 86.6863 315.29 87.1201 315.255 87.5542Z" fill="#00715B"/>
<path fill-rule="evenodd" clip-rule="evenodd" d="M282.446 75.5359C282.408 75.9943 282.37 76.4523 282.333 76.909C282.371 76.4503 282.408 75.9929 282.446 75.5359Z" fill="#00715B"/>
<path fill-rule="evenodd" clip-rule="evenodd" d="M315.033 105.121C315.029 104.679 315.026 104.236 315.023 103.794C315.309 104.236 315.297 104.678 315.033 105.121Z" fill="#00715B"/>
<path fill-rule="evenodd" clip-rule="evenodd" d="M265.771 168.725C265.767 169.169 265.763 169.613 265.758 170.055C265.465 169.608 265.524 169.165 265.771 168.725Z" fill="#00715B"/>
<path fill-rule="evenodd" clip-rule="evenodd" d="M299.166 117.366C299.115 116.916 299.063 116.467 299.012 116.019C299.064 116.469 299.115 116.917 299.166 117.366Z" fill="#00715B"/>
<path fill-rule="evenodd" clip-rule="evenodd" d="M22.6437 76.1262C22.2963 76.5853 21.8232 76.2708 21.4102 76.3266C21.8218 76.2597 22.2328 76.1931 22.6437 76.1262Z" fill="#00715B"/>
<path fill-rule="evenodd" clip-rule="evenodd" d="M194.419 179.956C193.981 179.957 193.542 179.957 193.103 179.958C193.542 179.957 193.981 179.956 194.419 179.956Z" fill="#00715B"/>
<path fill-rule="evenodd" clip-rule="evenodd" d="M264.536 78.0124C264.577 78.3857 264.617 78.759 264.658 79.1309C264.617 78.757 264.577 78.3847 264.536 78.0124Z" fill="#00715B"/>
<path fill-rule="evenodd" clip-rule="evenodd" d="M47.6444 40.9389C47.2032 40.9477 46.762 40.9564 46.3207 40.9651C46.7572 40.7082 47.1971 40.6339 47.6444 40.9389Z" fill="#00715B"/>
<path fill-rule="evenodd" clip-rule="evenodd" d="M282.435 81.9929C282.407 82.3844 282.378 82.7755 282.35 83.1652C282.378 82.7738 282.407 82.3834 282.435 81.9929Z" fill="#00715B"/>
<path fill-rule="evenodd" clip-rule="evenodd" d="M270.336 33.9426C270.37 33.5858 270.404 33.229 270.438 32.8742C270.404 33.2317 270.37 33.5872 270.336 33.9426Z" fill="#00715B"/>
<path fill-rule="evenodd" clip-rule="evenodd" d="M266.869 32.8249C266.834 33.212 266.799 33.5994 266.765 33.9851C266.8 33.5973 266.834 33.2109 266.869 32.8249Z" fill="#00715B"/>
<path fill-rule="evenodd" clip-rule="evenodd" d="M75.2174 6.96679C74.7685 7.02127 74.3195 7.07575 73.8709 7.12989C74.3199 7.07541 74.7685 7.02127 75.2174 6.96679Z" fill="#00715B"/>
<path fill-rule="evenodd" clip-rule="evenodd" d="M42.7907 41.2472C42.33 41.2942 41.8693 41.3413 41.4089 41.3884C41.8696 41.3413 42.3303 41.2942 42.7907 41.2472Z" fill="#00715B"/>
<path fill-rule="evenodd" clip-rule="evenodd" d="M295.257 42.3818C295.285 42.0216 295.313 41.6611 295.341 41.303C295.313 41.6635 295.285 42.0227 295.257 42.3818Z" fill="#00715B"/>
<path fill-rule="evenodd" clip-rule="evenodd" d="M27.6691 101.824C27.9345 101.828 28.1995 101.831 28.4608 101.835C28.1944 101.831 27.9318 101.828 27.6691 101.824Z" fill="#00715B"/>
<path fill-rule="evenodd" clip-rule="evenodd" d="M266.882 146.277C266.855 146.675 266.829 147.074 266.802 147.472C266.829 147.073 266.856 146.675 266.882 146.277Z" fill="#00715B"/>
<path fill-rule="evenodd" clip-rule="evenodd" d="M293.949 68.6598C293.938 68.2754 293.927 67.8913 293.916 67.508C293.928 67.8927 293.938 68.2761 293.949 68.6598Z" fill="#00715B"/>
<path fill-rule="evenodd" clip-rule="evenodd" d="M86.519 6.05729C86.1097 6.05729 85.7005 6.05762 85.2919 6.05762C85.7011 5.77648 86.1101 5.78354 86.519 6.05729Z" fill="#00715B"/>
<path fill-rule="evenodd" clip-rule="evenodd" d="M195.784 96.5279C195.336 96.5394 194.888 96.5508 194.44 96.5622C194.88 96.2508 195.329 96.2431 195.784 96.5279Z" fill="#00715B"/>
<path fill-rule="evenodd" clip-rule="evenodd" d="M234.959 200.551C235.224 200.557 235.49 200.563 235.753 200.569C235.486 200.564 235.222 200.557 234.959 200.551Z" fill="#00715B"/>
<path fill-rule="evenodd" clip-rule="evenodd" d="M244.966 201.018C245.231 201.009 245.496 201 245.758 200.99C245.492 201 245.229 201.009 244.966 201.018Z" fill="#00715B"/>
<path fill-rule="evenodd" clip-rule="evenodd" d="M88.3558 201.203C88.6325 201.21 88.9093 201.217 89.1824 201.224C88.9046 201.217 88.6302 201.21 88.3558 201.203Z" fill="#00715B"/>
<path fill-rule="evenodd" clip-rule="evenodd" d="M318.92 159.424C318.881 159.044 318.841 158.663 318.802 158.285C318.841 158.666 318.881 159.045 318.92 159.424Z" fill="#00715B"/>
<path fill-rule="evenodd" clip-rule="evenodd" d="M282.774 95.3606C282.806 95.7228 282.837 96.085 282.868 96.4448C282.837 96.0823 282.805 95.7214 282.774 95.3606Z" fill="#00715B"/>
<path fill-rule="evenodd" clip-rule="evenodd" d="M296.684 89.1424C296.641 88.7584 296.598 88.3743 296.556 87.9916C296.599 88.376 296.641 88.7591 296.684 89.1424Z" fill="#00715B"/>
<path fill-rule="evenodd" clip-rule="evenodd" d="M90.6012 201.432C90.8803 201.428 91.1598 201.423 91.4359 201.42C91.1554 201.424 90.8783 201.428 90.6012 201.432Z" fill="#00715B"/>
<path fill-rule="evenodd" clip-rule="evenodd" d="M192.251 201.462C192.523 201.45 192.794 201.438 193.062 201.426C192.79 201.438 192.521 201.45 192.251 201.462Z" fill="#00715B"/>
<path fill-rule="evenodd" clip-rule="evenodd" d="M294.414 61.0993C294.402 60.7102 294.389 60.3211 294.377 59.9327C294.39 60.3221 294.402 60.7105 294.414 61.0993Z" fill="#00715B"/>
<path fill-rule="evenodd" clip-rule="evenodd" d="M64.1338 201.686C64.4062 201.684 64.6783 201.682 64.947 201.68C64.6732 201.683 64.4038 201.685 64.1338 201.686Z" fill="#00715B"/>
<path fill-rule="evenodd" clip-rule="evenodd" d="M294.3 201.682C294.58 201.685 294.86 201.688 295.136 201.691C294.855 201.689 294.577 201.686 294.3 201.682Z" fill="#00715B"/>
<path fill-rule="evenodd" clip-rule="evenodd" d="M300.345 201.649C300.615 201.668 300.886 201.688 301.153 201.706C300.881 201.687 300.613 201.668 300.345 201.649Z" fill="#00715B"/>
<path fill-rule="evenodd" clip-rule="evenodd" d="M302.786 201.644C303.062 201.652 303.337 201.661 303.609 201.667C303.333 201.659 303.06 201.651 302.786 201.644Z" fill="#00715B"/>
<path fill-rule="evenodd" clip-rule="evenodd" d="M315.322 90.6847C315.304 90.302 315.286 89.9189 315.268 89.5372C315.286 89.9206 315.304 90.3026 315.322 90.6847Z" fill="#00715B"/>
<path fill-rule="evenodd" clip-rule="evenodd" d="M130.585 196.628C131.422 196.584 132.26 196.541 133.097 196.497C132.26 196.541 131.422 196.584 130.585 196.628Z" fill="#00715B"/>
<path fill-rule="evenodd" clip-rule="evenodd" d="M80.0776 57.4708C80.8043 57.534 81.531 57.5972 82.2571 57.6598C81.5304 57.5969 80.804 57.5337 80.0776 57.4708Z" fill="#00715B"/>
<path fill-rule="evenodd" clip-rule="evenodd" d="M285.266 89.0661C285.288 89.7595 285.311 90.453 285.334 91.1444C285.311 90.4506 285.288 89.7585 285.266 89.0661Z" fill="#00715B"/>
<path fill-rule="evenodd" clip-rule="evenodd" d="M300.264 197.814C301.022 197.86 301.781 197.905 302.539 197.951C301.776 197.986 301.001 198.204 300.264 197.814Z" fill="#00715B"/>
<path fill-rule="evenodd" clip-rule="evenodd" d="M295.774 115.79C295.78 115.128 295.786 114.467 295.791 113.807C295.785 114.469 295.78 115.129 295.774 115.79Z" fill="#00715B"/>
<path fill-rule="evenodd" clip-rule="evenodd" d="M293.832 136.573C294.498 136.582 295.164 136.591 295.829 136.599C295.163 136.59 294.498 136.582 293.832 136.573Z" fill="#00715B"/>
<path fill-rule="evenodd" clip-rule="evenodd" d="M126.263 124.943C126.246 125.448 126.23 125.952 126.214 126.453C126.231 125.949 126.247 125.446 126.263 124.943Z" fill="#00715B"/>
<path fill-rule="evenodd" clip-rule="evenodd" d="M304.911 103.598C304.884 104.099 304.857 104.601 304.83 105.1C304.858 104.598 304.884 104.098 304.911 103.598Z" fill="#00715B"/>
<path fill-rule="evenodd" clip-rule="evenodd" d="M290.71 195.581C291.194 195.548 291.678 195.516 292.161 195.485C291.797 195.776 291.431 195.8 290.71 195.581Z" fill="#00715B"/>
<path fill-rule="evenodd" clip-rule="evenodd" d="M287.469 130.005C287.502 130.546 287.535 131.086 287.568 131.625C287.535 131.084 287.502 130.545 287.469 130.005Z" fill="#00715B"/>
<path fill-rule="evenodd" clip-rule="evenodd" d="M106.404 44.6522C106.409 44.13 106.414 43.6077 106.419 43.0875C106.414 43.6104 106.409 44.1313 106.404 44.6522Z" fill="#00715B"/>
<path fill-rule="evenodd" clip-rule="evenodd" d="M288.055 136.682L289.86 136.643C289.264 136.931 288.663 136.941 288.055 136.682Z" fill="#00715B"/>
<path fill-rule="evenodd" clip-rule="evenodd" d="M304.706 140.536C304.281 140.54 303.855 140.543 303.432 140.548C303.859 140.544 304.283 140.54 304.706 140.536Z" fill="#00715B"/>
<path fill-rule="evenodd" clip-rule="evenodd" d="M148.844 195.789C149.433 195.797 150.023 195.805 150.612 195.812C150.018 196.11 149.428 196.152 148.844 195.789Z" fill="#00715B"/>
<path fill-rule="evenodd" clip-rule="evenodd" d="M37.8574 197.525C38.4553 197.472 39.0536 197.418 39.6515 197.365C39.0536 197.418 38.4553 197.472 37.8574 197.525Z" fill="#00715B"/>
<path fill-rule="evenodd" clip-rule="evenodd" d="M285.473 93.5198C285.503 94.0626 285.532 94.6054 285.561 95.1465C285.532 94.603 285.503 94.0616 285.473 93.5198Z" fill="#00715B"/>
<path fill-rule="evenodd" clip-rule="evenodd" d="M94.613 58.7451C95.1171 58.4965 95.6253 58.4548 96.1385 58.7182C95.6296 58.7272 95.1215 58.7363 94.613 58.7451Z" fill="#00715B"/>
<path fill-rule="evenodd" clip-rule="evenodd" d="M268.984 99.7873C269.025 100.245 269.067 100.703 269.109 101.159C269.067 100.701 269.025 100.244 268.984 99.7873Z" fill="#00715B"/>
<path fill-rule="evenodd" clip-rule="evenodd" d="M311.568 89.1042C311.309 88.6562 311.318 88.2107 311.58 87.7691C311.576 88.2147 311.572 88.6596 311.568 89.1042Z" fill="#00715B"/>
<path fill-rule="evenodd" clip-rule="evenodd" d="M285.556 73.5539C285.556 74.0069 285.556 74.4602 285.556 74.9119C285.556 74.4579 285.556 74.0059 285.556 73.5539Z" fill="#00715B"/>
<path fill-rule="evenodd" clip-rule="evenodd" d="M303.626 136.356C304.145 136.197 304.664 135.972 305.181 136.362C304.662 136.36 304.144 136.358 303.626 136.356Z" fill="#00715B"/>
<path fill-rule="evenodd" clip-rule="evenodd" d="M135.949 196.423C136.471 196.374 136.993 196.326 137.515 196.277C136.993 196.326 136.471 196.374 135.949 196.423Z" fill="#00715B"/>
<path fill-rule="evenodd" clip-rule="evenodd" d="M64.3707 196.424C64.8489 196.214 65.3261 196.103 65.7972 196.44C65.3214 196.434 64.8462 196.429 64.3707 196.424Z" fill="#00715B"/>
<path fill-rule="evenodd" clip-rule="evenodd" d="M162.186 195.75C162.697 195.526 163.208 195.403 163.712 195.765C163.203 195.76 162.695 195.755 162.186 195.75Z" fill="#00715B"/>
<path fill-rule="evenodd" clip-rule="evenodd" d="M48.3547 129.592C48.393 130.054 48.4317 130.516 48.4697 130.976C48.431 130.514 48.3927 130.053 48.3547 129.592Z" fill="#00715B"/>
<path fill-rule="evenodd" clip-rule="evenodd" d="M167.074 102.997C167.577 102.814 168.079 102.718 168.573 103.024C168.073 103.015 167.574 103.006 167.074 102.997Z" fill="#00715B"/>
<path fill-rule="evenodd" clip-rule="evenodd" d="M285.465 116.741C285.493 117.192 285.521 117.644 285.549 118.094C285.521 117.642 285.493 117.192 285.465 116.741Z" fill="#00715B"/>
<path fill-rule="evenodd" clip-rule="evenodd" d="M48.0295 76.0188C47.9878 76.3823 47.9461 76.7462 47.9048 77.1077C47.9465 76.7435 47.9878 76.3813 48.0295 76.0188Z" fill="#00715B"/>
<path fill-rule="evenodd" clip-rule="evenodd" d="M18.869 181.444C18.8431 181.798 18.8176 182.152 18.792 182.503C18.8186 182.149 18.8438 181.796 18.869 181.444Z" fill="#00715B"/>
<path fill-rule="evenodd" clip-rule="evenodd" d="M295.997 119.129C295.969 118.764 295.941 118.398 295.912 118.033C295.941 118.4 295.969 118.765 295.997 119.129Z" fill="#00715B"/>
<path fill-rule="evenodd" clip-rule="evenodd" d="M259.358 195.066C259.807 195.069 260.255 195.073 260.703 195.076C260.255 195.073 259.806 195.069 259.358 195.066Z" fill="#00715B"/>
<path fill-rule="evenodd" clip-rule="evenodd" d="M126.093 128.057C126.177 128.323 126.261 128.59 126.344 128.857C125.785 128.992 125.701 128.725 126.093 128.057Z" fill="#00715B"/>
<path fill-rule="evenodd" clip-rule="evenodd" d="M159.706 102.395C160.162 102.393 160.617 102.391 161.072 102.389C160.618 102.605 160.163 102.753 159.706 102.395Z" fill="#00715B"/>
<path fill-rule="evenodd" clip-rule="evenodd" d="M48.6099 131.778C48.6253 132.182 48.6408 132.586 48.6556 132.988C48.6398 132.584 48.6247 132.181 48.6099 131.778Z" fill="#00715B"/>
<path fill-rule="evenodd" clip-rule="evenodd" d="M53.427 196.865C53.8665 196.865 54.3057 196.865 54.7453 196.864C54.3054 196.865 53.8665 196.865 53.427 196.865Z" fill="#00715B"/>
<path fill-rule="evenodd" clip-rule="evenodd" d="M270.089 136.033C270.105 136.405 270.122 136.776 270.138 137.146C270.123 136.773 270.106 136.404 270.089 136.033Z" fill="#00715B"/>
<path fill-rule="evenodd" clip-rule="evenodd" d="M44.0962 197.318C44.5283 197.031 44.9615 197.056 45.3953 197.314C44.9621 197.315 44.529 197.317 44.0962 197.318Z" fill="#00715B"/>
<path fill-rule="evenodd" clip-rule="evenodd" d="M55.4756 70.8274C55.4988 71.2068 55.5223 71.5865 55.5465 71.9634C55.5233 71.5834 55.4995 71.2054 55.4756 70.8274Z" fill="#00715B"/>
<path fill-rule="evenodd" clip-rule="evenodd" d="M41.848 197.358C42.2972 197.359 42.7465 197.361 43.1955 197.363C42.7449 197.67 42.2959 197.684 41.848 197.358Z" fill="#00715B"/>
<path fill-rule="evenodd" clip-rule="evenodd" d="M290.633 64.8727C290.637 64.4873 290.64 64.1023 290.644 63.7179C290.64 64.1036 290.637 64.488 290.633 64.8727Z" fill="#00715B"/>
<path fill-rule="evenodd" clip-rule="evenodd" d="M84.3682 58.1332C84.798 58.1894 85.2278 58.2456 85.6572 58.3014C85.2275 58.2452 84.7977 58.1894 84.3682 58.1332Z" fill="#00715B"/>
<path fill-rule="evenodd" clip-rule="evenodd" d="M46.4427 91.3922C46.4484 91.752 46.4541 92.1122 46.4608 92.4704C46.4551 92.1099 46.4491 91.751 46.4427 91.3922Z" fill="#00715B"/>
<path fill-rule="evenodd" clip-rule="evenodd" d="M293.527 91.3407C293.503 90.9741 293.48 90.6076 293.456 90.2427C293.48 90.6099 293.503 90.9755 293.527 91.3407Z" fill="#00715B"/>
<path fill-rule="evenodd" clip-rule="evenodd" d="M193.287 196.928C193.817 196.976 194.348 197.024 194.878 197.072C194.347 197.024 193.817 196.976 193.287 196.928Z" fill="#00715B"/>
<path fill-rule="evenodd" clip-rule="evenodd" d="M191.515 183.199C191.228 183.204 190.942 183.208 190.658 183.214C190.946 183.211 191.23 183.205 191.515 183.199Z" fill="#00715B"/>
<path fill-rule="evenodd" clip-rule="evenodd" d="M191.54 196.718C191.984 196.762 192.429 196.806 192.874 196.849C192.429 196.805 191.984 196.762 191.54 196.718Z" fill="#00715B"/>
<path fill-rule="evenodd" clip-rule="evenodd" d="M111.495 166.765C112.073 170.035 106.991 173.233 106.589 168.585C106.441 166.885 107.578 165.689 108.851 164.65C110.657 163.176 111.667 164.588 111.495 166.765Z" fill="#00715B"/>
<path fill-rule="evenodd" clip-rule="evenodd" d="M55.4776 126.868C56.6748 127.358 65.8217 130.338 61.0705 131.838C59.8128 132.234 57.9117 132.294 56.8215 131.594C55.5099 130.753 54.1869 128.27 55.4776 126.868Z" fill="#00715B"/>
<path fill-rule="evenodd" clip-rule="evenodd" d="M57.7285 82.5834C60.8332 82.2229 63.6937 87.3221 59.866 87.1566C57.0798 87.0359 53.3328 82.5834 57.7285 82.5834Z" fill="#00715B"/>
<path fill-rule="evenodd" clip-rule="evenodd" d="M68.8347 95.0863C71.4272 97.3482 66.6219 102.41 64.7142 100.451C63.7399 99.4504 64.6385 97.2944 65.4426 96.4571C66.2678 95.5978 67.7361 95.4364 68.8347 95.0863Z" fill="#00715B"/>
<path fill-rule="evenodd" clip-rule="evenodd" d="M76.5527 153.725C75.0222 153.968 68.2916 156.168 69.6953 152.173C70.2307 150.65 71.7238 151.101 73.0889 151.171C75.2889 151.284 76.5527 151.178 76.5527 153.725Z" fill="#00715B"/>
<path fill-rule="evenodd" clip-rule="evenodd" d="M72.1191 164.015C74.4103 165.241 71.0612 172.1 69.1621 170.641C66.5273 168.616 70.131 164.631 72.1191 164.015Z" fill="#00715B"/>
<path fill-rule="evenodd" clip-rule="evenodd" d="M82.1117 158.5C83.2258 158.045 88.4777 163.097 86.4785 164.503C85.4538 165.223 83.5124 163.988 82.8946 163.244C81.7364 161.847 81.6315 160.125 82.1117 158.5Z" fill="#00715B"/>
<path fill-rule="evenodd" clip-rule="evenodd" d="M51.8109 117.209C52.9495 117.396 54.9155 117.455 54.9892 119.055C55.0537 120.461 53.2905 120.917 52.0493 121.027C50.7613 121.142 49.0563 120.778 49.0317 119.159C49.0058 117.412 51.7705 117.517 51.8109 117.209Z" fill="#00715B"/>
<path fill-rule="evenodd" clip-rule="evenodd" d="M79.8907 186.839C81.1033 187.575 86.7598 190.226 84.3351 192.141C83.4278 192.857 80.6773 191.377 80.0581 190.625C79.3193 189.727 78.5973 187.623 79.8907 186.839Z" fill="#00715B"/>
<path fill-rule="evenodd" clip-rule="evenodd" d="M95.615 167.605C95.4398 164.679 100.376 163.515 99.3526 167.668C99.064 168.839 98.7849 170.616 97.3372 170.684C95.6261 170.764 95.5642 168.74 95.615 167.605Z" fill="#00715B"/>
<path fill-rule="evenodd" clip-rule="evenodd" d="M80.3668 116.727C80.4012 118.947 76.1484 120.904 76.1154 117.386C76.0862 114.242 80.5256 113.322 80.3668 116.727Z" fill="#00715B"/>
<path fill-rule="evenodd" clip-rule="evenodd" d="M77.5587 105.168C78.6066 105.505 79.9992 105.679 80.0913 107.01C80.1892 108.42 78.8803 109.047 77.7026 108.968C76.7368 108.903 75.3075 108.188 75.132 107.14C74.8747 105.602 76.376 105.501 77.5587 105.168Z" fill="#00715B"/>
<path fill-rule="evenodd" clip-rule="evenodd" d="M58.0731 145.803C58.0552 143.971 61.7255 141.77 62.4015 143.895C62.6177 144.575 60.8878 147.625 60.3124 147.853C58.79 148.457 58.5775 147.049 58.0731 145.803Z" fill="#00715B"/>
<path fill-rule="evenodd" clip-rule="evenodd" d="M88.1492 176.285C86.909 177.395 83.1886 180.514 83.4667 176.328C83.6443 173.653 88.4764 173.793 88.1492 176.285Z" fill="#00715B"/>
<path fill-rule="evenodd" clip-rule="evenodd" d="M148.764 188.25C149.17 186.49 154.991 189.543 153.048 191.766C152.397 192.513 150.692 191.837 150.037 191.395C148.74 190.52 148.711 189.712 148.764 188.25Z" fill="#00715B"/>
<path fill-rule="evenodd" clip-rule="evenodd" d="M116.333 150.572C116.56 149.788 116.813 148.4 117.561 147.9C118.916 146.994 120.095 148.36 120.096 149.801C120.096 152.488 117.037 153.335 116.333 150.572Z" fill="#00715B"/>
<path fill-rule="evenodd" clip-rule="evenodd" d="M101.907 181.988C103.419 182.335 106.784 186.008 104.832 187.507C102.954 188.949 100.456 183.085 101.907 181.988Z" fill="#00715B"/>
<path fill-rule="evenodd" clip-rule="evenodd" d="M103.346 154.181C105.289 154.336 107.96 157.482 104.94 157.983C102.577 158.374 99.8298 154.952 103.346 154.181Z" fill="#00715B"/>
<path fill-rule="evenodd" clip-rule="evenodd" d="M120.937 168.661C121.425 167.019 126.244 168.778 125.973 170.585C125.829 171.546 123.859 171.772 122.823 171.518C121.298 171.144 120.902 170.143 120.937 168.661Z" fill="#00715B"/>
<path fill-rule="evenodd" clip-rule="evenodd" d="M64.1319 76.9853C64.1669 74.8633 68.2445 73.9984 68.5431 76.1368C68.8131 78.0688 64.0808 80.1246 64.1319 76.9853Z" fill="#00715B"/>
<path fill-rule="evenodd" clip-rule="evenodd" d="M119.59 190.526C119.884 189.459 120.011 188.175 121.344 188.034C122.87 187.873 122.825 189.043 122.645 190.256C122.157 193.555 120.293 193.72 119.59 190.526Z" fill="#00715B"/>
<path fill-rule="evenodd" clip-rule="evenodd" d="M55.1984 102.232C53.0727 102.712 49.1795 98.6179 51.5591 97.7395C53.2358 97.1197 55.1984 100.997 55.1984 102.232Z" fill="#00715B"/>
<path fill-rule="evenodd" clip-rule="evenodd" d="M82.3111 134.034C81.2293 134.543 80.9801 134.852 80.1491 134.016C79.4254 133.288 79.4574 131.259 80.0785 130.502C82.4574 127.602 82.4016 132.86 82.3111 134.034Z" fill="#00715B"/>
<path fill-rule="evenodd" clip-rule="evenodd" d="M91.1375 128.151C92.2658 128.295 95.6183 131.475 93.8726 132.739C91.7334 134.287 90.5231 129.437 91.1375 128.151Z" fill="#00715B"/>
<path fill-rule="evenodd" clip-rule="evenodd" d="M115.548 128.989C114.728 132.147 112.681 130.022 112.797 127.632C112.983 123.805 115.105 127.138 115.548 128.989Z" fill="#00715B"/>
<path fill-rule="evenodd" clip-rule="evenodd" d="M127.995 179.711C129.383 180.285 131.266 185.589 129.284 185.873C127.058 186.192 127.799 180.815 127.995 179.711Z" fill="#00715B"/>
<path fill-rule="evenodd" clip-rule="evenodd" d="M110.667 176.731C112.255 176.195 112.837 179.544 111.914 180.166C109.884 181.535 110.312 177.521 110.667 176.731Z" fill="#00715B"/>
<path fill-rule="evenodd" clip-rule="evenodd" d="M95.615 167.605C95.5948 168.05 95.575 168.494 95.5541 168.936C95.574 168.491 95.5942 168.048 95.615 167.605Z" fill="#00715B"/>
<path fill-rule="evenodd" clip-rule="evenodd" d="M148.764 188.25C148.747 188.706 148.731 189.161 148.714 189.615C148.729 189.158 148.747 188.704 148.764 188.25Z" fill="#00715B"/>
<path fill-rule="evenodd" clip-rule="evenodd" d="M120.937 168.661C120.929 169.047 120.919 169.434 120.909 169.819C120.918 169.431 120.928 169.046 120.937 168.661Z" fill="#00715B"/>
<path fill-rule="evenodd" clip-rule="evenodd" d="M296.549 162.005C299.84 161.899 303.512 160.66 306.747 161.055C307.637 161.163 309.687 161.388 308.26 162.708C307.578 163.34 304.312 163.013 303.323 163.223C297.279 164.502 290.419 165.328 284.222 165.221C281.321 165.171 278.399 164.939 275.499 164.785C272.602 164.632 272.317 163.455 275.577 163.08C278.964 162.691 282.438 162.836 285.841 162.832C289.419 162.827 292.978 162.244 296.549 162.005Z" fill="#00715B"/>
<path fill-rule="evenodd" clip-rule="evenodd" d="M303.775 154.075C303.458 154.977 303.18 157.047 301.966 157.183C300.266 157.373 299.984 154.453 300.047 153.386C300.123 152.097 300.587 149.956 302.188 150.403C303.541 150.779 303.677 153.043 303.775 154.075Z" fill="#00715B"/>
<path fill-rule="evenodd" clip-rule="evenodd" d="M293.481 153.414C293.73 152.448 293.852 150.271 295.218 150.197C296.745 150.114 297.181 152.383 297.171 153.47C297.161 154.502 296.779 156.452 295.563 156.69C293.915 157.014 293.768 154.518 293.481 153.414Z" fill="#00715B"/>
<path fill-rule="evenodd" clip-rule="evenodd" d="M276.339 155.147C275.844 156.308 275.517 157.907 273.986 157.115C272.802 156.503 272.637 154.034 272.86 152.904C273.092 151.733 273.582 150.39 274.927 150.917C276.479 151.524 276.322 153.869 276.339 155.147Z" fill="#00715B"/>
<path fill-rule="evenodd" clip-rule="evenodd" d="M289.32 154.075C287.861 158.498 285.2 155.505 286.21 152.203C287.267 148.751 289.186 152.104 289.32 154.075Z" fill="#00715B"/>
<path fill-rule="evenodd" clip-rule="evenodd" d="M282.211 154.294C281.806 155.072 281.375 156.753 280.282 156.576C278.943 156.358 278.9 153.781 279.047 152.822C279.175 151.982 279.553 150.582 280.673 150.6C282.293 150.626 282.184 153.285 282.211 154.294Z" fill="#00715B"/>
<path fill-rule="evenodd" clip-rule="evenodd" d="M311.318 155.143C310.231 157.58 308.737 155.48 309.215 153.749C309.925 151.182 311.256 153.457 311.318 155.143Z" fill="#00715B"/>
<path fill-rule="evenodd" clip-rule="evenodd" d="M284.715 162.835C283.529 162.83 282.342 162.826 281.156 162.821C282.343 162.598 283.531 162.511 284.715 162.835Z" fill="#00715B"/>
<path fill-rule="evenodd" clip-rule="evenodd" d="M308.29 161.045C307.261 161.051 306.232 161.058 305.204 161.065C306.231 160.757 307.26 160.75 308.29 161.045Z" fill="#00715B"/>
<path fill-rule="evenodd" clip-rule="evenodd" d="M296.549 162.005C295.725 162.06 294.902 162.115 294.079 162.17C294.902 162.115 295.725 162.06 296.549 162.005Z" fill="#00715B"/>
<path fill-rule="evenodd" clip-rule="evenodd" d="M276.339 155.147C276.331 154.556 276.323 153.964 276.316 153.374C276.62 153.962 276.599 154.553 276.339 155.147Z" fill="#00715B"/>
<path fill-rule="evenodd" clip-rule="evenodd" d="M282.793 165.208C283.271 165.213 283.749 165.217 284.222 165.221C283.743 165.217 283.268 165.213 282.793 165.208Z" fill="#00715B"/>
<path fill-rule="evenodd" clip-rule="evenodd" d="M274.774 164.786C275.258 164.786 275.742 164.785 276.222 164.786C275.736 164.786 275.256 164.786 274.774 164.786Z" fill="#00715B"/>
<path fill-rule="evenodd" clip-rule="evenodd" d="M278.74 162.886C278.067 162.941 277.395 162.996 276.723 163.051C277.395 162.996 278.067 162.941 278.74 162.886Z" fill="#00715B"/>
<path fill-rule="evenodd" clip-rule="evenodd" d="M287.833 162.827C287.169 162.829 286.505 162.83 285.841 162.831C286.505 162.552 287.169 162.543 287.833 162.827Z" fill="#00715B"/>
<path fill-rule="evenodd" clip-rule="evenodd" d="M282.211 154.294C282.194 153.677 282.178 153.061 282.163 152.446C282.179 153.062 282.195 153.678 282.211 154.294Z" fill="#00715B"/>
<path fill-rule="evenodd" clip-rule="evenodd" d="M272.86 152.904C272.857 153.505 272.853 154.106 272.848 154.705C272.852 154.103 272.856 153.504 272.86 152.904Z" fill="#00715B"/>
<path fill-rule="evenodd" clip-rule="evenodd" d="M300.322 161.781C299.735 161.835 299.148 161.887 298.562 161.94C299.149 161.887 299.736 161.835 300.322 161.781Z" fill="#00715B"/>
<path fill-rule="evenodd" clip-rule="evenodd" d="M311.318 155.143C311.298 154.618 311.28 154.093 311.261 153.568C311.28 154.094 311.298 154.618 311.318 155.143Z" fill="#00715B"/>
<path fill-rule="evenodd" clip-rule="evenodd" d="M286.341 165.226C286.75 165.218 287.158 165.211 287.563 165.203C287.153 165.212 286.747 165.219 286.341 165.226Z" fill="#00715B"/>
<path fill-rule="evenodd" clip-rule="evenodd" d="M303.775 154.075C303.739 153.697 303.703 153.32 303.667 152.944C303.703 153.322 303.739 153.698 303.775 154.075Z" fill="#00715B"/>
<path fill-rule="evenodd" clip-rule="evenodd" d="M289.32 154.075C289.294 153.687 289.268 153.3 289.241 152.913C289.268 153.301 289.294 153.688 289.32 154.075Z" fill="#00715B"/>
<path fill-rule="evenodd" clip-rule="evenodd" d="M78.5872 40.2296C76.98 39.8079 76.6787 37.5493 76.937 36.1621C77.2299 35.4936 77.5228 34.8253 77.8157 34.1568C77.701 33.9096 77.5867 33.6624 77.4723 33.4153C77.6193 32.0385 77.2437 31.4402 78.8259 31.9978C81.7651 33.0343 82.2349 40.1233 78.5872 40.2296Z" fill="#00715B"/>
<path fill-rule="evenodd" clip-rule="evenodd" d="M102.377 35.8627C103.701 35.7584 106.106 37.3003 104.788 38.7921C103.971 39.7163 101.281 39.2791 100.183 39.4721C98.7273 39.728 97.2089 40.0781 97.9965 37.8976C98.615 36.1852 100.824 35.818 102.377 35.8627Z" fill="#00715B"/>
<path fill-rule="evenodd" clip-rule="evenodd" d="M100.984 46.1191C99.639 45.0406 100.239 40.1284 102.286 41.0122C104.392 41.9219 102.106 45.4102 100.984 46.1191Z" fill="#00715B"/>
<path fill-rule="evenodd" clip-rule="evenodd" d="M76.937 36.1621C76.937 36.6789 76.9367 37.1961 76.9357 37.7107C76.6552 37.1928 76.664 36.6773 76.937 36.1621Z" fill="#00715B"/>
<path fill-rule="evenodd" clip-rule="evenodd" d="M78.5872 40.2296C78.8613 40.2219 79.1357 40.2138 79.4064 40.2067C79.131 40.2155 78.8593 40.2225 78.5872 40.2296Z" fill="#00715B"/>
<path fill-rule="evenodd" clip-rule="evenodd" d="M244.643 181.697C244.517 183.931 242.117 182.279 242.288 180.784C242.597 178.072 244.13 180.752 244.643 181.697Z" fill="#00715B"/>
</g>
<defs>
<filter id="filter0_d" x="0.365845" y="0.849365" width="340.634" height="218.457" filterUnits="userSpaceOnUse" color-interpolation-filters="sRGB">
<feFlood flood-opacity="0" result="BackgroundImageFix"/>
<feColorMatrix in="SourceAlpha" type="matrix" values="0 0 0 0 0 0 0 0 0 0 0 0 0 0 0 0 0 0 127 0"/>
<feOffset dy="5"/>
<feGaussianBlur stdDeviation="5"/>
<feColorMatrix type="matrix" values="0 0 0 0 0 0 0 0 0 0 0 0 0 0 0 0 0 0 0.1 0"/>
<feBlend mode="normal" in2="BackgroundImageFix" result="effect1_dropShadow"/>
<feBlend mode="normal" in="SourceGraphic" in2="effect1_dropShadow" result="shape"/>
</filter>
</defs>
</svg>
