<?xml version="1.0" encoding="iso-8859-1"?>
<!-- Generator: Adobe Illustrator 19.0.0, SVG Export Plug-In . SVG Version: 6.00 Build 0)  -->
<svg version="1.1" id="Capa_1" xmlns="http://www.w3.org/2000/svg" xmlns:xlink="http://www.w3.org/1999/xlink" x="0px" y="0px"
	 viewBox="0 0 511.999 511.999" style="enable-background:new 0 0 511.999 511.999;" xml:space="preserve">
<g>
	<g>
		<path d="M446.552,109.257c-1.623-2.361-40.422-57.849-98.648-60.18c-0.49-0.02-0.98-0.022-1.47-0.034l34.307-25.731
			c2.192-1.644,3.313-4.352,2.924-7.064c-0.389-2.712-2.226-4.997-4.791-5.958c-36.917-13.844-67.576-13.718-91.127,0.378
			c-14.665,8.777-24.758,21.988-31.719,35.959c-2.644-5.308-5.59-10.203-8.823-14.64c-7.948-10.908-17.678-19.156-28.917-24.516
			c-22.683-10.815-51.337-9.867-85.165,2.819c-2.565,0.962-4.402,3.246-4.791,5.958c-0.389,2.712,0.732,5.42,2.924,7.064
			l34.307,25.73c-0.49,0.012-0.979,0.014-1.469,0.034c-58.225,2.331-97.025,57.819-98.648,60.18
			c-1.578,2.295-1.754,5.276-0.458,7.741c1.297,2.465,3.853,4.008,6.638,4.008h61.456c-18.254,13.977-31.714,34.213-39.527,59.778
			c-8.289,27.12-7.34,50.521-7.295,51.503c0.123,2.729,1.721,5.175,4.17,6.385c1.052,0.52,2.188,0.776,3.322,0.776
			c1.505,0,3.004-0.453,4.284-1.343l134.141-93.316l-7.568,352.21h-24.724c-4.142,0-7.5,3.358-7.5,7.5c0,4.142,3.358,7.5,7.5,7.5
			h112.227c4.142,0,7.5-3.358,7.5-7.5c0-4.142-3.358-7.5-7.5-7.5h-24.724l-7.568-352.21l134.141,93.316
			c1.28,0.89,2.778,1.343,4.284,1.343c1.133,0,2.271-0.256,3.322-0.776c2.449-1.21,4.047-3.656,4.17-6.385
			c0.044-0.983,0.993-24.383-7.295-51.503c-7.812-25.562-21.266-45.799-39.514-59.778h61.444c2.785,0,5.341-1.543,6.638-4.008
			C448.306,114.533,448.131,111.553,446.552,109.257z M295.452,23.539c16.699-9.994,38.463-11.204,64.831-3.631l-44.718,33.539
			c-19.817,6.202-39.183,18.896-57.928,37.981C261.097,70.567,270.416,38.522,295.452,23.539z M151.718,19.906
			c23.953-6.879,44.132-6.517,60.115,1.104c16.282,7.763,28.475,23.088,36.284,45.524c-1.64,5.28-2.92,10.414-3.922,15.211
			c-15.562-13.775-31.521-23.235-47.784-28.318L151.718,19.906z M87.409,106.007c13.925-15.372,41.962-40.527,77.285-41.941
			c28.113-1.125,55.929,12.972,82.888,41.941H87.409z M101.783,217.227c0.75-8.588,2.45-20.19,6.247-32.476
			c9.801-31.713,28.41-53.147,55.309-63.744H240.1L101.783,217.227z M239.614,497l7.795-362.805l8.591-5.976l8.591,5.976
			L272.384,497H239.614z M336.163,106.008v-0.002c-4.142,0-7.5,3.358-7.5,7.5c0,4.142,3.358,7.5,7.5,7.5h12.496
			c26.9,10.597,45.508,32.03,55.309,63.744c3.797,12.286,5.497,23.889,6.246,32.477l-138.317-96.221h32.196
			c4.142,0,7.5-3.358,7.5-7.5s-3.358-7.5-7.5-7.5h-39.676c26.931-28.939,54.727-43.042,82.804-41.944
			c26.221,1.022,48.321,15.37,62.244,27.226c6.071,5.17,11.171,10.339,15.133,14.719H336.163z"/>
	</g>
</g>
<g>
</g>
<g>
</g>
<g>
</g>
<g>
</g>
<g>
</g>
<g>
</g>
<g>
</g>
<g>
</g>
<g>
</g>
<g>
</g>
<g>
</g>
<g>
</g>
<g>
</g>
<g>
</g>
<g>
</g>
</svg>
